<mxfile host="app.diagrams.net" modified="2023-12-20T06:26:24.527Z" agent="Mozilla/5.0 (Macintosh; Intel Mac OS X 10_15_7) AppleWebKit/537.36 (KHTML, like Gecko) Chrome/120.0.0.0 Safari/537.36" version="22.1.11" etag="movqvKP44NC2qJL7C9sO" type="github">
  <diagram name="第 1 页" id="CIxzjFE_B9As4OE5m5ty">
    <mxGraphModel>
      <root>
        <mxCell id="0" />
        <mxCell id="1" parent="0" />
      </root>
    </mxGraphModel>
  </diagram>
</mxfile>
